# xmcd
#
# Track frame offsets:
#	150
#	12413
#	24974
#	38306
#	50196
#	62404
#	75900
#	88217
#	100606
#	114025
#	126951
#	139671
#	150917
#	163522
#	175611
#	189132
#	202072
#	214448
#	227122
#	238893
#
# Disc length: 3343 seconds
#
# Revision: 2
# Processed by: cddbd v1.5.2PL0 Copyright (c) Steve Scherf et al.
# Submitted via: EZCDAudioConverter 2.2.2.1
#
DISCID=f40d0d14
DTITLE=Roy Acuff - The Essential Roy Acuff: 1936-1949
DYEAR=1992
DGENRE=Country
TTITLE0=Great Speckle Bird
TTITLE1=Steel Guitar Blues
TTITLE2=Just to Ease My Worried Mind
TTITLE3=Lonesome Old River Blues
TTITLE4=The Precious Jewel
TTITLE5=It Won't Be Long (Till I'll Be Leaving)
TTITLE6=Wreck on the Highway
TTITLE7=Fireball Mail
TTITLE8=Night Train to Memphis
TTITLE9=The Prodigal Son
TTITLE10=Not a Word From Home
TTITLE11=I'll Forgive You, but I Can't Forget You
TTITLE12=Freight Train Blues
TTITLE13=Wabash Cannon Ball
TTITLE14=Jole Blon
TTITLE15=This World Can't Stand Long
TTITLE16=Waltz of the Wind
TTITLE17=A Sinner's Death (I'm Dying)
TTITLE18=Tennessee Waltz
TTITLE19=Black Mountain Rag
EXTD=
EXTT0=
EXTT1=
EXTT2=
EXTT3=
EXTT4=
EXTT5=
EXTT6=
EXTT7=
EXTT8=
EXTT9=
EXTT10=
EXTT11=
EXTT12=
EXTT13=
EXTT14=
EXTT15=
EXTT16=
EXTT17=
EXTT18=
EXTT19=
PLAYORDER=
